<svg xmlns="http://www.w3.org/2000/svg" viewBox="0 0 512.001 512.001" style="enable-background:new 0 0 512.001 512.001" xml:space="preserve"><path d="M344.471 134.819c-3.547-10.911-12.8-18.711-24.151-20.361l-25.907-3.764-11.586-23.476c-5.077-10.286-15.355-16.676-26.825-16.676s-21.749 6.39-26.825 16.676l-11.586 23.477-25.907 3.764c-11.351 1.65-20.605 9.451-24.149 20.36-3.544 10.908-.643 22.66 7.57 30.664l18.747 18.273-4.426 25.803c-1.94 11.305 2.621 22.517 11.901 29.26 5.243 3.81 11.378 5.746 17.555 5.744 4.754 0 9.533-1.147 13.948-3.468l23.173-12.181 23.172 12.181c10.152 5.338 22.224 4.466 31.504-2.276s13.84-17.954 11.901-29.259l-4.426-25.803 18.747-18.273c8.213-8.005 11.114-19.756 7.57-30.665zm-54.631 25.1a29.914 29.914 0 0 0-8.604 26.478l2.671 15.573-13.986-7.353a29.907 29.907 0 0 0-27.841 0l-13.986 7.353 2.672-15.575a29.909 29.909 0 0 0-8.604-26.477l-11.315-11.028 15.636-2.273a29.909 29.909 0 0 0 22.523-16.365l6.993-14.17 6.993 14.169a29.911 29.911 0 0 0 22.525 16.367l15.636 2.273-11.313 11.028z" style="fill:#fff"/><path d="M428.618 29.446c2.309-3.077 3.694-6.887 3.694-11.031C432.312 8.245 424.067 0 413.896 0H98.105C87.935 0 79.69 8.245 79.69 18.416c0 4.143 1.385 7.956 3.695 11.032C32.798 42.476-.393 92.418 8.398 144.875a101.94 101.94 0 0 0 46.226 69.382l56.39 35.466c1.32.83 2.707 1.461 4.125 1.923 16.691 38.263 48.521 68.462 87.886 82.972v70.074c-39.176 10.585-68.092 46.418-68.092 88.894 0 10.17 8.245 18.416 18.416 18.416h205.304c10.17 0 18.416-8.245 18.416-18.416 0-42.476-28.916-78.309-68.092-88.894v-70.074c39.365-14.51 71.196-44.709 87.886-82.972a18.395 18.395 0 0 0 4.125-1.923l56.39-35.466a101.945 101.945 0 0 0 46.226-69.382c8.792-52.462-24.407-102.41-74.986-115.429zM74.232 183.08a65.082 65.082 0 0 1-29.51-44.293c-2.87-17.129 1.101-34.35 11.183-48.492S80.972 66.784 98.122 63.91l.334-.056a18.35 18.35 0 0 0 3.945-1.142v127.72c0 3.563.133 7.094.372 10.596L74.232 183.08zm262.851 292.089H174.92c7.602-21.439 28.086-36.839 52.099-36.839h57.965c24.013 0 44.497 15.4 52.099 36.839zm-97.227-73.67v-57.465h32.289v57.465h-32.289zm132.915-211.065c-.001 64.387-52.384 116.769-116.769 116.769-64.387 0-116.769-52.382-116.769-116.769V36.831h233.539v153.603zm94.508-51.647a65.077 65.077 0 0 1-29.51 44.293l-28.54 17.95c.239-3.503.372-7.034.372-10.596V62.714c1.246.512 2.56.907 3.945 1.142l.355.059c17.129 2.87 32.114 12.24 42.196 26.381 10.081 14.141 14.053 31.362 11.182 48.491z" style="fill:#fff"/></svg>