<svg viewBox="0 -0.167 313.313 246.476" xmlns="http://www.w3.org/2000/svg"><circle cx="57.657" cy="188.652" fill="#e8410f" r="57.657"/><path d="M112.783 2.287a4.585 4.585 0 0 0-6.476-1.54A57.2 57.2 0 0 0 83.95 28.256q-.333.88-.631 1.751a54.982 54.982 0 0 0 4.778 45.17l96.636 167.315a4.585 4.585 0 0 0 6.281 1.664 52.052 52.052 0 0 0 17.77-16.792c6.965-10.853 8.408-22.454 7.78-32.177a65.91 65.91 0 0 0-8.875-28.652zm96.122 0a4.585 4.585 0 0 0-6.477-1.54 57.2 57.2 0 0 0-22.356 27.509q-.334.88-.632 1.751a54.982 54.982 0 0 0 4.778 45.17l96.637 167.315a4.585 4.585 0 0 0 6.28 1.664 52.052 52.052 0 0 0 17.77-16.792c6.965-10.853 8.408-22.454 7.78-32.177a65.91 65.91 0 0 0-8.875-28.652z" fill="#ef7403"/></svg>